<?xml version="1.0" encoding="UTF-8"?>
<!DOCTYPE svg PUBLIC "-//W3C//DTD SVG 1.1//EN" "http://www.w3.org/Graphics/SVG/1.1/DTD/svg11.dtd">
<!-- Creator: CorelDRAW X8 -->
<svg xmlns="http://www.w3.org/2000/svg" xml:space="preserve" width="210mm" height="297mm" version="1.1" style="shape-rendering:geometricPrecision; text-rendering:geometricPrecision; image-rendering:optimizeQuality; fill-rule:evenodd; clip-rule:evenodd"
viewBox="0 0 21000 29700"
 xmlns:xlink="http://www.w3.org/1999/xlink"
 xmlns:dc="http://purl.org/dc/elements/1.1/"
 xmlns:cc="http://creativecommons.org/ns#"
 xmlns:rdf="http://www.w3.org/1999/02/22-rdf-syntax-ns#"
 xmlns:svg="http://www.w3.org/2000/svg">
 <defs>
  <style type="text/css">
   <![CDATA[
    .str0 {stroke:black;stroke-width:32.85}
    .fil0 {fill:#373435}
   ]]>
  </style>
 </defs>
 <g id="Capa_x0020_1">
  <metadata id="CorelCorpID_0Corel-Layer"/>
  <path id="path930" class="fil0 str0" d="M1868 26250c-14,-14 -41,-41 -56,-252 -15,-212 -18,-608 0,-809 17,-201 56,-207 97,-210 42,-3 86,-3 129,-83 43,-80 84,-239 139,-397 54,-159 122,-315 168,-394 47,-78 71,-78 142,-77 71,1 189,3 254,11 65,7 76,20 118,110 41,89 112,257 162,404 50,146 80,273 98,342 18,70 26,82 131,88 105,5 307,3 416,-2 108,-5 121,-12 141,-81 19,-69 44,-200 93,-349 48,-150 121,-318 168,-408 48,-90 71,-101 142,-106 72,-5 192,-2 255,1 64,3 70,7 112,92 41,84 119,250 174,404 56,155 89,299 111,372 21,74 30,76 136,76 106,0 307,-2 412,-7 104,-4 112,-10 130,-85 19,-76 50,-222 101,-372 52,-150 125,-305 168,-386 42,-82 53,-90 120,-94 67,-3 190,-2 258,3 69,5 83,14 97,29 14,15 28,35 67,121 38,87 102,241 145,380 43,139 65,263 84,333 19,69 36,84 146,88 111,4 315,-2 420,-10 105,-8 111,-17 127,-87 16,-69 42,-199 94,-350 51,-151 127,-323 173,-413 45,-90 60,-97 129,-100 70,-2 194,1 263,6 68,4 81,9 124,98 42,90 116,263 166,415 50,152 77,281 95,352 18,70 26,82 129,86 103,4 301,1 409,-3 108,-4 127,-10 149,-84 22,-74 47,-217 95,-367 49,-149 121,-305 166,-391 45,-85 63,-101 132,-108 69,-7 189,-5 255,-1 67,4 79,9 122,95 43,86 116,254 156,348 40,95 46,117 61,185 15,68 39,182 57,244 17,62 27,73 134,77 106,4 309,2 418,-6 109,-8 123,-21 144,-99 21,-77 48,-218 97,-362 49,-144 119,-290 158,-372 40,-81 49,-98 118,-105 69,-7 198,-3 268,1 69,4 79,9 122,98 43,89 118,261 174,415 56,153 93,286 115,358 22,72 29,81 128,85 100,3 291,1 395,-6 104,-8 119,-20 141,-89 23,-69 52,-194 102,-339 49,-145 119,-309 162,-400 43,-91 59,-109 69,-119 11,-11 16,-14 76,-14 61,-1 179,1 249,9 70,8 93,22 140,109 47,88 118,250 169,401 51,150 81,289 102,359 20,70 30,72 138,72 107,1 311,1 415,-3 105,-3 110,-9 127,-84 16,-74 44,-218 92,-364 47,-146 112,-296 152,-381 39,-84 51,-104 126,-112 75,-8 212,-4 282,1 70,4 73,8 114,98 41,90 119,265 169,405 50,140 72,243 88,309 16,67 25,96 38,111 13,15 30,16 137,17 107,0 305,0 405,-2 100,-3 104,-8 121,-83 17,-76 48,-221 71,-309 22,-89 36,-120 75,-203 39,-83 104,-218 144,-287 40,-69 54,-72 121,-72 66,1 184,5 249,11 64,6 75,14 116,101 41,86 112,252 154,352 41,99 53,133 67,200 14,66 30,165 45,222 15,56 28,69 132,74 103,5 297,2 402,-1 106,-4 124,-8 146,-76 22,-67 49,-197 92,-328 43,-131 102,-262 146,-355 44,-92 74,-145 92,-173 17,-27 23,-28 81,-28 58,0 167,1 234,7 68,6 93,16 140,103 47,86 117,249 168,401 51,152 83,294 104,368 21,74 30,80 136,82 107,2 311,1 419,-6 109,-8 122,-21 137,-87 14,-66 31,-187 81,-338 50,-150 135,-332 181,-425 45,-92 53,-95 121,-95 68,0 196,3 267,8 70,6 85,16 126,101 41,86 111,249 157,372 47,124 71,208 90,281 19,73 34,135 47,166 12,31 22,31 51,31 29,0 76,0 110,5 33,4 52,13 63,46 11,34 14,91 15,281 1,189 -1,510 -5,682 -5,172 -12,196 -25,211 -12,16 -30,23 -317,24 -288,1 -845,-5 -3961,-2 -3116,4 -8789,17 -11636,23 -2847,7 -2867,5 -2877,5 -10,-1 -10,-1 -24,-14l0 0z"/>
 </g>
</svg>
